<svg width="36" height="36" viewBox="0 0 36 36" fill="none" xmlns="http://www.w3.org/2000/svg">
<g clip-path="url(#clip0_40_489)">
<path d="M6 6C5.60218 6 5.22064 6.15804 4.93934 6.43934C4.65804 6.72064 4.5 7.10218 4.5 7.5C4.5 7.89782 4.65804 8.27936 4.93934 8.56066C5.22064 8.84196 5.60218 9 6 9H30C30.3978 9 30.7794 8.84196 31.0607 8.56066C31.342 8.27936 31.5 7.89782 31.5 7.5C31.5 7.10218 31.342 6.72064 31.0607 6.43934C30.7794 6.15804 30.3978 6 30 6H6ZM4.5 18C4.5 17.6022 4.65804 17.2206 4.93934 16.9393C5.22064 16.658 5.60218 16.5 6 16.5H10.5C10.8978 16.5 11.2794 16.658 11.5607 16.9393C11.842 17.2206 12 17.6022 12 18C12 18.3978 11.842 18.7794 11.5607 19.0607C11.2794 19.342 10.8978 19.5 10.5 19.5H6C5.60218 19.5 5.22064 19.342 4.93934 19.0607C4.65804 18.7794 4.5 18.3978 4.5 18ZM4.5 28.5C4.5 28.1022 4.65804 27.7206 4.93934 27.4393C5.22064 27.158 5.60218 27 6 27H12C12.3978 27 12.7794 27.158 13.0607 27.4393C13.342 27.7206 13.5 28.1022 13.5 28.5C13.5 28.8978 13.342 29.2794 13.0607 29.5607C12.7794 29.842 12.3978 30 12 30H6C5.60218 30 5.22064 29.842 4.93934 29.5607C4.65804 29.2794 4.5 28.8978 4.5 28.5ZM15 21C15.0003 19.8306 15.274 18.6775 15.7993 17.6327C16.3246 16.588 17.0869 15.6805 18.0254 14.9829C18.9638 14.2852 20.0524 13.8166 21.2042 13.6146C22.356 13.4126 23.5391 13.4826 24.659 13.8193C25.7789 14.1559 26.8045 14.7497 27.654 15.5533C28.5036 16.3569 29.1534 17.3481 29.5516 18.4475C29.9499 19.547 30.0855 20.7244 29.9477 21.8856C29.8099 23.0468 29.4025 24.1598 28.758 25.1355L31.0605 27.4395C31.3337 27.7224 31.4849 28.1013 31.4815 28.4946C31.4781 28.8879 31.3203 29.2641 31.0422 29.5422C30.7641 29.8203 30.3879 29.9781 29.9946 29.9815C29.6013 29.9849 29.2224 29.8337 28.9395 29.5605L26.6355 27.258C25.505 28.0052 24.1933 28.4321 22.8396 28.4935C21.4859 28.5549 20.1409 28.2483 18.9475 27.6064C17.754 26.9646 16.7568 26.0114 16.0618 24.8481C15.3667 23.6849 14.9998 22.3551 15 21ZM22.5 16.5C21.9091 16.5 21.3239 16.6164 20.7779 16.8425C20.232 17.0687 19.7359 17.4002 19.318 17.818C18.9002 18.2359 18.5687 18.732 18.3425 19.2779C18.1164 19.8239 18 20.4091 18 21C18 21.5909 18.1164 22.1761 18.3425 22.7221C18.5687 23.268 18.9002 23.7641 19.318 24.182C19.7359 24.5998 20.232 24.9313 20.7779 25.1575C21.3239 25.3836 21.9091 25.5 22.5 25.5C23.6935 25.5 24.8381 25.0259 25.682 24.182C26.5259 23.3381 27 22.1935 27 21C27 19.8065 26.5259 18.6619 25.682 17.818C24.8381 16.9741 23.6935 16.5 22.5 16.5Z" fill="white"/>
</g>
<defs>
<clipPath id="clip0_40_489">
<rect width="36" height="36" fill="white"/>
</clipPath>
</defs>
</svg>
