<svg width="52" height="54" viewBox="0 0 52 54" fill="none" xmlns="http://www.w3.org/2000/svg">
<path d="M26 37.8367C28.829 37.8367 31.5421 36.6749 33.5425 34.607C35.5429 32.5391 36.6667 29.7344 36.6667 26.8099C36.6667 23.8855 35.5429 21.0808 33.5425 19.0129C31.5421 16.9449 28.829 15.7832 26 15.7832C23.171 15.7832 20.4579 16.9449 18.4575 19.0129C16.4571 21.0808 15.3333 23.8855 15.3333 26.8099C15.3333 29.7344 16.4571 32.5391 18.4575 34.607C20.4579 36.6749 23.171 37.8367 26 37.8367Z" stroke="#333333" stroke-width="4" stroke-linecap="round" stroke-linejoin="round"/>
<path d="M2 37.8369V15.7834C2 12.1278 3.40476 8.62196 5.90524 6.03707C8.40573 3.45218 11.7971 2 15.3333 2H36.6667C40.2029 2 43.5943 3.45218 46.0948 6.03707C48.5952 8.62196 50 12.1278 50 15.7834V37.8369C50 41.4925 48.5952 44.9984 46.0948 47.5832C43.5943 50.1681 40.2029 51.6203 36.6667 51.6203H15.3333C11.7971 51.6203 8.40573 50.1681 5.90524 47.5832C3.40476 44.9984 2 41.4925 2 37.8369Z" stroke="#333333" stroke-width="4"/>
<path d="M40.6667 11.676L40.6933 11.6455" stroke="#333333" stroke-width="4" stroke-linecap="round" stroke-linejoin="round"/>
</svg>
