<svg width="58" height="46" viewBox="0 0 58 46" fill="none" xmlns="http://www.w3.org/2000/svg">
<path fill-rule="evenodd" clip-rule="evenodd" d="M29 0.333496C31.4225 0.333496 33.9073 0.39583 36.3157 0.49783L39.1603 0.633829L41.8832 0.79533L44.4332 0.968163L46.7622 1.1495C49.2896 1.34295 51.6679 2.42151 53.4786 4.19544C55.2894 5.96937 56.4165 8.32503 56.6618 10.848L56.7752 12.0522L56.9877 14.6305C57.186 17.3023 57.3333 20.215 57.3333 23.0002C57.3333 25.7853 57.186 28.698 56.9877 31.3698L56.7752 33.9482C56.7383 34.3618 56.7015 34.7613 56.6618 35.1523C56.4164 37.6757 55.2889 40.0318 53.4776 41.8057C51.6663 43.5797 49.2873 44.658 46.7593 44.8508L44.436 45.0293L41.886 45.205L39.1603 45.3665L36.3157 45.5025C33.8785 45.6084 31.4394 45.6632 29 45.6668C26.5606 45.6632 24.1215 45.6084 21.6843 45.5025L18.8397 45.3665L16.1168 45.205L13.5668 45.0293L11.2378 44.8508C8.71035 44.6574 6.33205 43.5788 4.52133 41.8049C2.7106 40.031 1.58345 37.6753 1.33816 35.1523L1.22482 33.9482L1.01232 31.3698C0.79568 28.5851 0.680381 25.7933 0.666656 23.0002C0.666656 20.215 0.81399 17.3023 1.01232 14.6305L1.22482 12.0522C1.26166 11.6385 1.29849 11.239 1.33816 10.848C1.58335 8.32547 2.7101 5.97017 4.52025 4.1963C6.3304 2.42243 8.70802 1.34359 11.235 1.1495L13.5612 0.968163L16.1112 0.79533L18.8368 0.633829L21.6815 0.49783C24.1196 0.391956 26.5596 0.337166 29 0.333496ZM23.3333 16.1293V29.871C23.3333 31.18 24.75 31.996 25.8833 31.3443L37.7833 24.4735C38.0423 24.3244 38.2574 24.1098 38.4069 23.8511C38.5565 23.5925 38.6352 23.2989 38.6352 23.0002C38.6352 22.7014 38.5565 22.4079 38.4069 22.1492C38.2574 21.8906 38.0423 21.6759 37.7833 21.5268L25.8833 14.6588C25.6248 14.5096 25.3316 14.431 25.0331 14.4311C24.7345 14.4311 24.4413 14.5098 24.1829 14.6591C23.9244 14.8084 23.7098 15.0232 23.5607 15.2818C23.4115 15.5404 23.3331 15.8337 23.3333 16.1322" fill="#333333"/>
</svg>
