<svg width="35" height="59" viewBox="0 0 35 59" fill="none" xmlns="http://www.w3.org/2000/svg">
<path fill-rule="evenodd" clip-rule="evenodd" d="M13.027 5.20617C15.9393 2.29338 19.8894 0.656737 24.0083 0.65625H31.9958C32.5843 0.65625 33.1486 0.89001 33.5647 1.30611C33.9808 1.7222 34.2146 2.28655 34.2146 2.875V13.525C34.2146 14.1134 33.9808 14.6778 33.5647 15.0939C33.1486 15.51 32.5843 15.7437 31.9958 15.7437H24.0083C23.9501 15.7437 23.8924 15.7552 23.8385 15.7775C23.7847 15.7998 23.7358 15.8325 23.6946 15.8737C23.6534 15.9149 23.6207 15.9638 23.5984 16.0177C23.5761 16.0715 23.5646 16.1292 23.5646 16.1875V21.9562H31.9958C32.3331 21.9561 32.6661 22.0328 32.9693 22.1806C33.2725 22.3284 33.538 22.5434 33.7456 22.8092C33.9533 23.075 34.0975 23.3847 34.1675 23.7146C34.2375 24.0446 34.2314 24.3862 34.1495 24.7134L31.487 35.3634C31.3669 35.8436 31.0897 36.2698 30.6994 36.5743C30.3092 36.8788 29.8283 37.044 29.3333 37.0437H23.5646V56.125C23.5646 56.7134 23.3308 57.2778 22.9147 57.6939C22.4986 58.11 21.9343 58.3437 21.3458 58.3437H10.6958C10.1074 58.3437 9.54304 58.11 9.12694 57.6939C8.71085 57.2778 8.47709 56.7134 8.47709 56.125V37.0437H2.70834C2.11989 37.0437 1.55554 36.81 1.13944 36.3939C0.723346 35.9778 0.489586 35.4134 0.489586 34.825V24.175C0.489586 23.8836 0.546975 23.5951 0.658478 23.3259C0.769981 23.0567 0.933412 22.8121 1.13944 22.6061C1.34547 22.4001 1.59007 22.2366 1.85926 22.1251C2.12845 22.0136 2.41697 21.9562 2.70834 21.9562H8.47709V16.1875C8.47757 12.0685 10.1142 8.11847 13.027 5.20617ZM24.0083 5.09375C21.0661 5.09375 18.2444 6.26255 16.1639 8.34303C14.0834 10.4235 12.9146 13.2453 12.9146 16.1875V24.175C12.9146 24.7634 12.6808 25.3278 12.2647 25.7439C11.8486 26.16 11.2843 26.3937 10.6958 26.3937H4.92709V32.6062H10.6958C11.2843 32.6062 11.8486 32.84 12.2647 33.2561C12.6808 33.6722 12.9146 34.2366 12.9146 34.825V53.9062H19.1271V34.825C19.1271 34.2366 19.3608 33.6722 19.7769 33.2561C20.193 32.84 20.7574 32.6062 21.3458 32.6062H27.5998L29.1529 26.3937H21.3458C20.7574 26.3937 20.193 26.16 19.7769 25.7439C19.3608 25.3278 19.1271 24.7634 19.1271 24.175V16.1875C19.1271 14.8929 19.6414 13.6513 20.5568 12.7359C21.4722 11.8205 22.7137 11.3062 24.0083 11.3062H29.7771V5.09375H24.0083Z" fill="#333333"/>
</svg>
