<svg width="31" height="35" viewBox="0 0 31 35" fill="none" xmlns="http://www.w3.org/2000/svg">
<mask id="path-1-inside-1_54_302" fill="white">
<path d="M1.63253 0.0777141C1.47883 0.0168051 1.31604 -0.00871952 1.15361 0.00262241C0.991174 0.0139643 0.832338 0.0619465 0.686318 0.143784C0.540298 0.225621 0.410003 0.339683 0.302997 0.479349C0.195991 0.619014 0.114405 0.7815 0.0629757 0.957375C0.0115463 1.13325 -0.00870215 1.31901 0.00340596 1.50387C0.0155141 1.68873 0.0597375 1.86902 0.133509 2.03425C0.20728 2.19948 0.30913 2.34638 0.433146 2.46641C0.557162 2.58644 0.700873 2.67722 0.855937 2.73346L1.29011 2.89957C2.39766 3.31948 3.13165 3.6013 3.67068 3.88684C4.18186 4.15746 4.40304 4.37581 4.54394 4.59977C4.68648 4.82373 4.79789 5.1298 4.86178 5.76808C4.92896 6.44181 4.9306 7.32271 4.9306 8.65338V13.6401C4.9306 16.1914 4.9306 18.2499 5.12229 19.868C5.31889 21.5477 5.74487 22.9623 6.73118 24.0859C7.71585 25.2094 8.95938 25.6909 10.4339 25.9167C11.8528 26.1351 13.6599 26.1351 15.8996 26.1351H27.4584C27.7843 26.1351 28.0968 25.9876 28.3272 25.7251C28.5577 25.4626 28.6872 25.1066 28.6872 24.7353C28.6872 24.3641 28.5577 24.0081 28.3272 23.7456C28.0968 23.4831 27.7843 23.3356 27.4584 23.3356H15.9897C13.6386 23.3356 11.9986 23.3319 10.76 23.1434C9.55903 22.9586 8.9217 22.6208 8.46786 22.1057C8.08285 21.6671 7.81251 21.0774 7.63884 20.0696H24.2193C25.7905 20.0696 26.5753 20.0696 27.1913 19.6067C27.8073 19.1439 28.117 18.3227 28.7363 16.6766L29.4375 14.8103C30.7646 11.283 31.4282 9.52121 30.6991 8.26332C29.97 7.00543 28.2874 7.00544 24.9189 7.00544H7.37998C7.37543 6.48615 7.34974 5.96738 7.30297 5.4508C7.21286 4.54565 7.01462 3.71514 6.53785 2.96302C6.06108 2.20903 5.43194 1.73126 4.70778 1.34867C4.02457 0.986604 3.15787 0.658134 2.13224 0.266211L1.63253 0.0777141ZM10.2553 29.4011C10.9071 29.4011 11.5322 29.696 11.9931 30.221C12.454 30.746 12.7129 31.4581 12.7129 32.2005C12.7129 32.943 12.454 33.6551 11.9931 34.1801C11.5322 34.7051 10.9071 35 10.2553 35C9.60355 35 8.97846 34.7051 8.51757 34.1801C8.05669 33.6551 7.79777 32.943 7.79777 32.2005C7.79777 31.4581 8.05669 30.746 8.51757 30.221C8.97846 29.696 9.60355 29.4011 10.2553 29.4011ZM25.0008 29.4011C25.6526 29.4011 26.2777 29.696 26.7386 30.221C27.1994 30.746 27.4584 31.4581 27.4584 32.2005C27.4584 32.943 27.1994 33.6551 26.7386 34.1801C26.2777 34.7051 25.6526 35 25.0008 35C24.349 35 23.7239 34.7051 23.263 34.1801C22.8021 33.6551 22.5432 32.943 22.5432 32.2005C22.5432 31.4581 22.8021 30.746 23.263 30.221C23.7239 29.696 24.349 29.4011 25.0008 29.4011Z"/>
</mask>
<path d="M1.63253 0.0777141C1.47883 0.0168051 1.31604 -0.00871952 1.15361 0.00262241C0.991174 0.0139643 0.832338 0.0619465 0.686318 0.143784C0.540298 0.225621 0.410003 0.339683 0.302997 0.479349C0.195991 0.619014 0.114405 0.7815 0.0629757 0.957375C0.0115463 1.13325 -0.00870215 1.31901 0.00340596 1.50387C0.0155141 1.68873 0.0597375 1.86902 0.133509 2.03425C0.20728 2.19948 0.30913 2.34638 0.433146 2.46641C0.557162 2.58644 0.700873 2.67722 0.855937 2.73346L1.29011 2.89957C2.39766 3.31948 3.13165 3.6013 3.67068 3.88684C4.18186 4.15746 4.40304 4.37581 4.54394 4.59977C4.68648 4.82373 4.79789 5.1298 4.86178 5.76808C4.92896 6.44181 4.9306 7.32271 4.9306 8.65338V13.6401C4.9306 16.1914 4.9306 18.2499 5.12229 19.868C5.31889 21.5477 5.74487 22.9623 6.73118 24.0859C7.71585 25.2094 8.95938 25.6909 10.4339 25.9167C11.8528 26.1351 13.6599 26.1351 15.8996 26.1351H27.4584C27.7843 26.1351 28.0968 25.9876 28.3272 25.7251C28.5577 25.4626 28.6872 25.1066 28.6872 24.7353C28.6872 24.3641 28.5577 24.0081 28.3272 23.7456C28.0968 23.4831 27.7843 23.3356 27.4584 23.3356H15.9897C13.6386 23.3356 11.9986 23.3319 10.76 23.1434C9.55903 22.9586 8.9217 22.6208 8.46786 22.1057C8.08285 21.6671 7.81251 21.0774 7.63884 20.0696H24.2193C25.7905 20.0696 26.5753 20.0696 27.1913 19.6067C27.8073 19.1439 28.117 18.3227 28.7363 16.6766L29.4375 14.8103C30.7646 11.283 31.4282 9.52121 30.6991 8.26332C29.97 7.00543 28.2874 7.00544 24.9189 7.00544H7.37998C7.37543 6.48615 7.34974 5.96738 7.30297 5.4508C7.21286 4.54565 7.01462 3.71514 6.53785 2.96302C6.06108 2.20903 5.43194 1.73126 4.70778 1.34867C4.02457 0.986604 3.15787 0.658134 2.13224 0.266211L1.63253 0.0777141ZM10.2553 29.4011C10.9071 29.4011 11.5322 29.696 11.9931 30.221C12.454 30.746 12.7129 31.4581 12.7129 32.2005C12.7129 32.943 12.454 33.6551 11.9931 34.1801C11.5322 34.7051 10.9071 35 10.2553 35C9.60355 35 8.97846 34.7051 8.51757 34.1801C8.05669 33.6551 7.79777 32.943 7.79777 32.2005C7.79777 31.4581 8.05669 30.746 8.51757 30.221C8.97846 29.696 9.60355 29.4011 10.2553 29.4011ZM25.0008 29.4011C25.6526 29.4011 26.2777 29.696 26.7386 30.221C27.1994 30.746 27.4584 31.4581 27.4584 32.2005C27.4584 32.943 27.1994 33.6551 26.7386 34.1801C26.2777 34.7051 25.6526 35 25.0008 35C24.349 35 23.7239 34.7051 23.263 34.1801C22.8021 33.6551 22.5432 32.943 22.5432 32.2005C22.5432 31.4581 22.8021 30.746 23.263 30.221C23.7239 29.696 24.349 29.4011 25.0008 29.4011Z" fill="white"/>
<path d="M1.63253 0.0777141L-2.05155 9.37436L-1.97445 9.40491L-1.89686 9.43418L1.63253 0.0777141ZM0.855937 2.73346L4.42908 -6.60638L4.34778 -6.63748L4.26594 -6.66717L0.855937 2.73346ZM1.29011 2.89957L-2.28303 12.2394L-2.26906 12.2448L-2.25506 12.2501L1.29011 2.89957ZM3.67068 3.88684L-1.01046 12.7235L-1.00809 12.7248L3.67068 3.88684ZM4.54394 4.59977L-3.92024 9.92496L-3.90633 9.94707L-3.89231 9.9691L4.54394 4.59977ZM4.86178 5.76808L14.8124 4.77596L14.812 4.77197L4.86178 5.76808ZM5.12229 19.868L15.0545 18.7054L15.0528 18.6916L5.12229 19.868ZM6.73118 24.0859L14.2517 17.4948L14.2462 17.4886L6.73118 24.0859ZM10.4339 25.9167L11.955 16.0331L11.9478 16.0319L10.4339 25.9167ZM10.76 23.1434L9.23935 33.0271L9.2474 33.0283L9.25545 33.0295L10.76 23.1434ZM8.46786 22.1057L0.952818 28.703L0.958734 28.7097L0.964663 28.7164L8.46786 22.1057ZM7.63884 20.0696V10.0696H-4.23179L-2.21591 21.7678L7.63884 20.0696ZM28.7363 16.6766L38.0958 20.198L38.0973 20.1939L28.7363 16.6766ZM29.4375 14.8103L20.078 11.289L20.0765 11.2931L29.4375 14.8103ZM7.37998 7.00544L-2.61964 7.093L-2.53284 17.0054H7.37998V7.00544ZM7.30297 5.4508L17.2623 4.54927L17.2582 4.5047L17.2538 4.46017L7.30297 5.4508ZM6.53785 2.96302L-1.91417 8.3075L-1.90818 8.31696L6.53785 2.96302ZM4.70778 1.34867L0.0251993 10.1846L0.0364275 10.1905L4.70778 1.34867ZM2.13224 0.266211L5.7018 -9.075L5.68173 -9.08267L5.66163 -9.09025L2.13224 0.266211ZM12.7129 32.2005H22.7129H12.7129ZM22.5432 32.2005H12.5432H22.5432ZM5.31661 -9.21893C3.79402 -9.8223 2.13567 -10.0903 0.457044 -9.97309L1.85017 9.97833C0.496402 10.0729 -0.836363 9.85591 -2.05155 9.37436L5.31661 -9.21893ZM0.457044 -9.97309C-1.22012 -9.85598 -2.80596 -9.36241 -4.20272 -8.57959L5.57536 8.86716C4.47064 9.4863 3.20246 9.88391 1.85017 9.97833L0.457044 -9.97309ZM-4.20272 -8.57959C-5.59415 -7.79976 -6.7447 -6.76447 -7.635 -5.60244L8.241 6.56114C7.56471 7.44383 6.67474 8.25101 5.57536 8.86716L-4.20272 -8.57959ZM-7.635 -5.60244C-8.52374 -4.44246 -9.15178 -3.16009 -9.53508 -1.84928L9.66103 3.76403C9.38058 4.72309 8.91572 5.68048 8.241 6.56114L-7.635 -5.60244ZM-9.53508 -1.84928C-9.91836 -0.538578 -10.0629 0.818906 -9.97521 2.15745L9.98202 0.850291C10.0455 1.81912 9.94145 2.80508 9.66103 3.76403L-9.53508 -1.84928ZM-9.97521 2.15745C-9.88754 3.49596 -9.56608 4.83806 -8.99775 6.11104L9.26476 -2.04254C9.68556 -1.10003 9.91857 -0.11849 9.98202 0.850291L-9.97521 2.15745ZM-8.99775 6.11104C-8.42915 7.38459 -7.60695 8.60144 -6.52154 9.65198L7.38783 -4.71916C8.22521 -3.90868 8.84371 -2.98562 9.26476 -2.04254L-8.99775 6.11104ZM-6.52154 9.65198C-5.4331 10.7054 -4.09482 11.5752 -2.55407 12.1341L4.26594 -6.66717C5.49656 -6.22077 6.54742 -5.53256 7.38783 -4.71916L-6.52154 9.65198ZM-2.71721 12.0733L-2.28303 12.2394L4.86325 -6.44028L4.42908 -6.60638L-2.71721 12.0733ZM-2.25506 12.2501C-1.67941 12.4683 -1.33577 12.6 -1.07987 12.7043C-0.821741 12.8095 -0.853057 12.8069 -1.01046 12.7235L8.35182 -4.94984C7.13385 -5.59505 5.7159 -6.11705 4.83528 -6.45093L-2.25506 12.2501ZM-1.00809 12.7248C-1.18292 12.6322 -1.65942 12.366 -2.23441 11.8767C-2.88407 11.3239 -3.45867 10.6586 -3.92024 9.92496L13.0081 -0.725421C11.6441 -2.89352 9.84136 -4.16128 8.34945 -4.9511L-1.00809 12.7248ZM-3.89231 9.9691C-4.3522 9.24652 -4.67027 8.50648 -4.869 7.82393C-5.04049 7.23489 -5.08231 6.82587 -5.08848 6.76418L14.812 4.77197C14.6677 3.33042 14.2914 1.29058 12.9802 -0.769563L-3.89231 9.9691ZM-5.08888 6.76019C-5.09419 6.70696 -5.08365 6.78915 -5.07687 7.1514C-5.07015 7.51064 -5.0694 7.9647 -5.0694 8.65338H14.9306C14.9306 7.5338 14.9407 6.06269 14.8124 4.77596L-5.08888 6.76019ZM-5.0694 8.65338V13.6401H14.9306V8.65338H-5.0694ZM-5.0694 13.6401C-5.0694 15.9609 -5.08542 18.705 -4.80827 21.0445L15.0528 18.6916C14.9466 17.7948 14.9306 16.4219 14.9306 13.6401H-5.0694ZM-4.80991 21.0306C-4.50738 23.6152 -3.69325 27.369 -0.783868 30.6831L14.2462 17.4886C14.689 17.9929 14.9269 18.4868 15.0356 18.7877C15.1256 19.0368 15.0974 19.0724 15.0545 18.7054L-4.80991 21.0306ZM-0.789303 30.6769C2.29508 34.1962 6.09826 35.3693 8.9201 35.8014L11.9478 16.0319C11.8191 16.0122 12.1293 16.0431 12.6338 16.2789C13.2057 16.5463 13.786 16.9634 14.2517 17.4948L-0.789303 30.6769ZM8.91285 35.8003C11.2618 36.1618 13.9576 36.1351 15.8996 36.1351V16.1351C13.3622 16.1351 12.4438 16.1083 11.955 16.0331L8.91285 35.8003ZM15.8996 36.1351H27.4584V16.1351H15.8996V36.1351ZM27.4584 36.1351C30.8879 36.1351 33.8673 34.5721 35.8423 32.3224L20.8122 19.1278C22.3263 17.4031 24.6806 16.1351 27.4584 16.1351V36.1351ZM35.8423 32.3224C37.7806 30.1144 38.6872 27.3685 38.6872 24.7353H18.6872C18.6872 22.8446 19.3348 20.8107 20.8122 19.1278L35.8423 32.3224ZM38.6872 24.7353C38.6872 22.1021 37.7806 19.3562 35.8423 17.1483L20.8122 30.3428C19.3348 28.6599 18.6872 26.6261 18.6872 24.7353H38.6872ZM35.8423 17.1483C33.8674 14.8986 30.8879 13.3356 27.4584 13.3356V33.3356C24.6806 33.3356 22.3263 32.0675 20.8122 30.3428L35.8423 17.1483ZM27.4584 13.3356H15.9897V33.3356H27.4584V13.3356ZM15.9897 13.3356C14.7784 13.3356 13.9315 13.3339 13.2428 13.3142C12.914 13.3049 12.6763 13.2927 12.5035 13.2799C12.3304 13.2672 12.2606 13.2566 12.2645 13.2572L9.25545 33.0295C11.4201 33.359 13.9582 33.3356 15.9897 33.3356V13.3356ZM12.2806 13.2597C12.2949 13.2619 12.4276 13.2826 12.6438 13.3429C12.8641 13.4043 13.1915 13.5123 13.5839 13.6966C14.4679 14.1116 15.2997 14.733 15.9711 15.495L0.964663 28.7164C3.49595 31.5895 6.65895 32.6301 9.23935 33.0271L12.2806 13.2597ZM15.9829 15.5084C16.5389 16.1417 16.9385 16.8186 17.1983 17.4393C17.4311 17.9954 17.4927 18.3664 17.4936 18.3714L-2.21591 21.7678C-1.85445 23.8653 -1.0582 26.4122 0.952818 28.703L15.9829 15.5084ZM7.63884 30.0696H24.2193V10.0696H7.63884V30.0696ZM24.2193 30.0696C24.7594 30.0696 26.0657 30.087 27.2863 29.9367C28.8278 29.7467 31.0395 29.2235 33.1981 27.6016L21.1845 11.6118C21.8862 11.0846 22.6351 10.6997 23.3652 10.4425C24.0485 10.2018 24.589 10.1178 24.8407 10.0867C25.0758 10.0578 25.182 10.0614 25.0222 10.0652C24.8612 10.069 24.6466 10.0696 24.2193 10.0696V30.0696ZM33.1981 27.6016C35.2579 26.054 36.3461 24.1919 36.9268 23.0174C37.4304 21.9989 37.8566 20.8338 38.0958 20.198L19.3768 13.1553C19.2125 13.592 19.1131 13.8549 19.0301 14.0634C18.9467 14.2728 18.9434 14.2644 18.9983 14.1534C19.1154 13.9167 19.7407 12.6966 21.1845 11.6118L33.1981 27.6016ZM38.0973 20.1939L38.7986 18.3275L20.0765 11.2931L19.3753 13.1594L38.0973 20.1939ZM38.797 18.3317C39.3572 16.8429 40.155 14.783 40.5813 12.9429C41.0331 10.9928 41.6136 7.15253 39.3509 3.24869L22.0473 13.278C21.3319 12.0436 21.057 10.8007 21.0083 9.81342C20.9861 9.36265 21.0127 9.01084 21.0384 8.79163C21.064 8.57419 21.0938 8.4444 21.0974 8.42863C21.1014 8.41167 21.0903 8.46162 21.0481 8.60003C21.0062 8.73706 20.9447 8.92521 20.8547 9.18328C20.6656 9.72552 20.4228 10.3727 20.078 11.289L38.797 18.3317ZM39.3509 3.24869C36.8832 -1.00877 32.8682 -2.29246 30.4609 -2.69823C28.5016 -3.02847 26.2284 -2.99456 24.9189 -2.99456V17.0054C25.8069 17.0054 26.3766 17.0064 26.835 17.0204C27.3088 17.0349 27.3325 17.0566 27.1367 17.0236C26.9437 16.991 26.0936 16.8365 25.0408 16.2414C23.8374 15.561 22.777 14.5368 22.0473 13.278L39.3509 3.24869ZM24.9189 -2.99456H7.37998V17.0054H24.9189V-2.99456ZM17.3796 6.91788C17.3727 6.12716 17.3335 5.33684 17.2623 4.54927L-2.6563 6.35234C-2.63407 6.59792 -2.62181 6.84514 -2.61964 7.093L17.3796 6.91788ZM17.2538 4.46017C17.0834 2.74902 16.621 0.191721 14.9839 -2.39092L-1.90818 8.31696C-2.59177 7.23856 -2.65771 6.34227 -2.64784 6.44144L17.2538 4.46017ZM14.9899 -2.38145C13.2972 -5.05827 11.1006 -6.58372 9.37912 -7.49319L0.0364275 10.1905C-0.0580096 10.1406 -0.373053 9.96592 -0.764126 9.63322C-1.17826 9.2809 -1.58164 8.83337 -1.91417 8.3075L14.9899 -2.38145ZM9.39035 -7.48725C8.04134 -8.20216 6.50406 -8.76843 5.7018 -9.075L-1.43733 9.60742C-0.884245 9.81877 -0.538725 9.95081 -0.244214 10.0715C0.0455221 10.1903 0.0954502 10.2218 0.0252031 10.1846L9.39035 -7.48725ZM5.66163 -9.09025L5.16192 -9.27875L-1.89686 9.43418L-1.39715 9.62267L5.66163 -9.09025ZM10.2553 39.4011C7.80344 39.4011 5.76166 38.2805 4.47806 36.8183L19.5082 23.6238C17.3028 21.1116 14.0108 19.4011 10.2553 19.4011V39.4011ZM4.47806 36.8183C3.23112 35.3979 2.71292 33.7201 2.71292 32.2005H22.7129C22.7129 29.1961 21.6769 26.0942 19.5082 23.6238L4.47806 36.8183ZM2.71292 32.2005C2.71292 30.681 3.23112 29.0032 4.47806 27.5828L19.5082 40.7773C21.6769 38.3069 22.7129 35.205 22.7129 32.2005H2.71292ZM4.47806 27.5828C5.76167 26.1206 7.80345 25 10.2553 25V45C14.0108 45 17.3028 43.2895 19.5082 40.7773L4.47806 27.5828ZM10.2553 25C12.7072 25 14.749 26.1206 16.0326 27.5828L1.00253 40.7773C3.20791 43.2895 6.49988 45 10.2553 45V25ZM16.0326 27.5828C17.2796 29.0032 17.7978 30.681 17.7978 32.2005H-2.20223C-2.20223 35.205 -1.16619 38.3069 1.00253 40.7773L16.0326 27.5828ZM17.7978 32.2005C17.7978 33.7201 17.2796 35.3979 16.0326 36.8183L1.00253 23.6238C-1.16619 26.0942 -2.20223 29.1961 -2.20223 32.2005H17.7978ZM16.0326 36.8183C14.749 38.2805 12.7072 39.4011 10.2553 39.4011V19.4011C6.49986 19.4011 3.20789 21.1116 1.00253 23.6238L16.0326 36.8183ZM25.0008 39.4011C22.5489 39.4011 20.5071 38.2805 19.2235 36.8183L34.2536 23.6238C32.0482 21.1116 28.7563 19.4011 25.0008 19.4011V39.4011ZM19.2235 36.8183C17.9766 35.3979 17.4584 33.7201 17.4584 32.2005H37.4584C37.4584 29.1961 36.4223 26.0942 34.2536 23.6238L19.2235 36.8183ZM17.4584 32.2005C17.4584 30.681 17.9766 29.0032 19.2235 27.5828L34.2536 40.7773C36.4223 38.3069 37.4584 35.205 37.4584 32.2005H17.4584ZM19.2235 27.5828C20.5071 26.1206 22.5489 25 25.0008 25V45C28.7563 45 32.0482 43.2895 34.2536 40.7773L19.2235 27.5828ZM25.0008 25C27.4527 25 29.4945 26.1206 30.7781 27.5828L15.748 40.7773C17.9534 43.2895 21.2453 45 25.0008 45V25ZM30.7781 27.5828C32.025 29.0032 32.5432 30.681 32.5432 32.2005H12.5432C12.5432 35.205 13.5793 38.3069 15.748 40.7773L30.7781 27.5828ZM32.5432 32.2005C32.5432 33.7201 32.025 35.3979 30.7781 36.8183L15.748 23.6238C13.5793 26.0942 12.5432 29.1961 12.5432 32.2005H32.5432ZM30.7781 36.8183C29.4945 38.2805 27.4527 39.4011 25.0008 39.4011V19.4011C21.2453 19.4011 17.9533 21.1116 15.748 23.6238L30.7781 36.8183Z" fill="white" mask="url(#path-1-inside-1_54_302)"/>
</svg>
