<svg width="31" height="31" viewBox="0 0 31 31" fill="none" xmlns="http://www.w3.org/2000/svg">
<path d="M16.2105 11.9474C18.9574 11.9474 21.1842 9.72057 21.1842 6.97368C21.1842 4.22679 18.9574 2 16.2105 2C13.4636 2 11.2368 4.22679 11.2368 6.97368C11.2368 9.72057 13.4636 11.9474 16.2105 11.9474Z" stroke="white" stroke-width="3" stroke-linecap="round" stroke-linejoin="round"/>
<path d="M2 28.2895C2 22.0106 7.72613 16.9211 14.7895 16.9211M21.7882 19.0526C20.2776 19.0526 19.0526 20.4801 19.0526 22.2401C19.0526 25.4282 22.2855 28.3257 24.0263 29C25.7671 28.3257 29 25.4282 29 22.2401C29 20.4808 27.7751 19.0526 26.2645 19.0526C25.3394 19.0526 24.5216 19.5877 24.0263 20.4069C23.5311 19.5877 22.7133 19.0526 21.7882 19.0526Z" stroke="white" stroke-width="3" stroke-linecap="round" stroke-linejoin="round"/>
</svg>
